<svg width="828" height="194" viewBox="0 0 828 194" fill="none" xmlns="http://www.w3.org/2000/svg">
<path d="M318.222 130.485H298.263V114.296H297.82C295.306 119.914 290.945 124.497 284.736 128.045C278.526 131.446 271.356 133.146 263.224 133.146C258.05 133.146 253.171 132.333 248.588 130.707C244.004 129.228 239.939 126.863 236.39 123.61C232.99 120.357 230.255 116.218 228.185 111.191C226.115 106.017 225.08 99.9549 225.08 93.0062V25.3672H245.039V87.462C245.039 92.3409 245.705 96.5545 247.035 100.103C248.366 103.503 250.14 106.312 252.358 108.53C254.575 110.6 257.089 112.152 259.898 113.187C262.855 114.074 265.885 114.518 268.99 114.518C273.13 114.518 276.974 113.852 280.522 112.522C284.07 111.191 287.175 109.121 289.836 106.312C292.497 103.355 294.567 99.6592 296.046 95.2239C297.524 90.7885 298.263 85.54 298.263 79.4784V25.3672H318.222V130.485Z" fill="white"/>
<path d="M337.22 25.3672H357.179V40.4474H357.622C361.466 34.8293 366.715 30.4678 373.368 27.3631C380.169 24.2583 387.118 22.706 394.214 22.706C402.346 22.706 409.664 24.1105 416.169 26.9196C422.822 29.7286 428.44 33.6465 433.023 38.6732C437.754 43.6999 441.377 49.6137 443.89 56.4146C446.403 63.0676 447.66 70.2381 447.66 77.926C447.66 85.7618 446.403 93.0801 443.89 99.881C441.377 106.534 437.754 112.374 433.023 117.401C428.44 122.279 422.822 126.123 416.169 128.932C409.664 131.742 402.346 133.146 394.214 133.146C386.674 133.146 379.577 131.594 372.924 128.489C366.271 125.236 361.171 120.875 357.622 115.405H357.179V193.023H337.22V25.3672ZM391.775 41.3344C386.452 41.3344 381.647 42.2954 377.36 44.2174C373.072 45.9915 369.45 48.5049 366.493 51.7575C363.536 54.8622 361.245 58.7062 359.618 63.2894C357.992 67.7247 357.179 72.6036 357.179 77.926C357.179 83.2484 357.992 88.2012 359.618 92.7844C361.245 97.2198 363.536 101.064 366.493 104.316C369.45 107.421 373.072 109.934 377.36 111.856C381.647 113.631 386.452 114.518 391.775 114.518C397.097 114.518 401.902 113.631 406.19 111.856C410.477 109.934 414.099 107.421 417.056 104.316C420.013 101.064 422.305 97.2198 423.931 92.7844C425.557 88.2012 426.37 83.2484 426.37 77.926C426.37 72.6036 425.557 67.7247 423.931 63.2894C422.305 58.7062 420.013 54.8622 417.056 51.7575C414.099 48.5049 410.477 45.9915 406.19 44.2174C401.902 42.2954 397.097 41.3344 391.775 41.3344Z" fill="white"/>
<path d="M461.704 25.3672H481.663V41.5562H482.107C483.437 38.7471 485.211 36.2338 487.429 34.0161C489.647 31.6506 492.086 29.6547 494.747 28.0284C497.556 26.4021 500.587 25.1454 503.84 24.2583C507.092 23.2234 510.345 22.706 513.598 22.706C516.85 22.706 519.807 23.1495 522.468 24.0366L521.581 45.548C519.955 45.1045 518.329 44.7349 516.702 44.4392C515.076 44.1435 513.45 43.9956 511.823 43.9956C502.066 43.9956 494.6 46.7308 489.425 52.201C484.25 57.6713 481.663 66.1724 481.663 77.7043V130.485H461.704V25.3672Z" fill="white"/>
<path d="M544.986 77.926C544.986 83.2484 545.799 88.2012 547.426 92.7844C549.052 97.2198 551.344 101.064 554.301 104.316C557.258 107.421 560.88 109.934 565.167 111.856C569.455 113.631 574.26 114.518 579.582 114.518C584.904 114.518 589.709 113.631 593.997 111.856C598.284 109.934 601.907 107.421 604.864 104.316C607.82 101.064 610.112 97.2198 611.738 92.7844C613.365 88.2012 614.178 83.2484 614.178 77.926C614.178 72.6036 613.365 67.7247 611.738 63.2894C610.112 58.7062 607.82 54.8622 604.864 51.7575C601.907 48.5049 598.284 45.9915 593.997 44.2174C589.709 42.2954 584.904 41.3344 579.582 41.3344C574.26 41.3344 569.455 42.2954 565.167 44.2174C560.88 45.9915 557.258 48.5049 554.301 51.7575C551.344 54.8622 549.052 58.7062 547.426 63.2894C545.799 67.7247 544.986 72.6036 544.986 77.926ZM523.697 77.926C523.697 70.2381 525.101 63.0676 527.91 56.4146C530.867 49.7616 534.859 43.9217 539.886 38.895C544.912 33.8683 550.826 29.9504 557.627 27.1413C564.428 24.1844 571.746 22.706 579.582 22.706C587.418 22.706 594.736 24.1844 601.537 27.1413C608.338 29.9504 614.252 33.8683 619.278 38.895C624.305 43.9217 628.223 49.7616 631.032 56.4146C633.989 63.0676 635.467 70.2381 635.467 77.926C635.467 85.614 633.989 92.8584 631.032 99.6592C628.223 106.312 624.305 112.152 619.278 117.179C614.252 122.058 608.338 125.976 601.537 128.932C594.736 131.742 587.418 133.146 579.582 133.146C571.746 133.146 564.428 131.742 557.627 128.932C550.826 125.976 544.912 122.058 539.886 117.179C534.859 112.152 530.867 106.312 527.91 99.6592C525.101 92.8584 523.697 85.614 523.697 77.926Z" fill="white"/>
<path d="M649.827 38.2297C655.445 33.0551 661.95 29.2111 669.342 26.6978C676.735 24.0366 684.127 22.706 691.519 22.706C699.207 22.706 705.786 23.667 711.256 25.589C716.874 27.5109 721.458 30.0982 725.006 33.3508C728.554 36.6034 731.141 40.3734 732.768 44.6609C734.542 48.8006 735.429 53.162 735.429 57.7452V111.413C735.429 115.109 735.503 118.509 735.651 121.614C735.799 124.719 736.02 127.676 736.316 130.485H718.575C718.131 125.162 717.909 119.84 717.909 114.518H717.466C713.03 121.318 707.782 126.123 701.72 128.932C695.659 131.742 688.636 133.146 680.652 133.146C675.774 133.146 671.116 132.481 666.681 131.15C662.246 129.82 658.328 127.824 654.927 125.162C651.675 122.501 649.088 119.249 647.166 115.405C645.244 111.413 644.283 106.83 644.283 101.655C644.283 94.8543 645.761 89.1622 648.718 84.579C651.823 79.9958 655.962 76.2997 661.137 73.4907C666.459 70.5338 672.595 68.464 679.544 67.2812C686.64 65.9506 694.18 65.2853 702.164 65.2853H716.801V60.8499C716.801 58.1887 716.283 55.5275 715.248 52.8663C714.213 50.2051 712.661 47.8396 710.591 45.7698C708.521 43.5521 705.934 41.8519 702.829 40.6691C699.724 39.3385 696.028 38.6732 691.741 38.6732C687.897 38.6732 684.496 39.0428 681.54 39.7821C678.73 40.5213 676.143 41.4823 673.778 42.665C671.412 43.6999 669.268 44.9566 667.346 46.4351C665.424 47.9135 663.576 49.318 661.802 50.6487L649.827 38.2297ZM706.156 79.9219C701.425 79.9219 696.546 80.2176 691.519 80.809C686.64 81.2525 682.131 82.2135 677.991 83.692C673.999 85.1704 670.673 87.2402 668.012 89.9015C665.498 92.5627 664.242 95.9631 664.242 100.103C664.242 106.164 666.238 110.526 670.229 113.187C674.369 115.848 679.913 117.179 686.862 117.179C692.332 117.179 696.989 116.292 700.833 114.518C704.677 112.596 707.782 110.156 710.148 107.199C712.513 104.242 714.213 100.99 715.248 97.4415C716.283 93.7454 716.801 90.1232 716.801 86.5749V79.9219H706.156Z" fill="white"/>
<path d="M809.179 51.7575C806.813 48.8006 803.856 46.3612 800.308 44.4392C796.908 42.3693 792.694 41.3344 787.667 41.3344C782.936 41.3344 778.797 42.3693 775.248 44.4392C771.848 46.3612 770.148 49.2441 770.148 53.0881C770.148 56.1928 771.109 58.7062 773.031 60.6282C775.1 62.5502 777.466 64.1025 780.127 65.2853C782.936 66.468 785.893 67.3551 788.998 67.9465C792.103 68.5379 794.764 69.0553 796.982 69.4989C801.269 70.5338 805.261 71.7905 808.957 73.2689C812.801 74.7474 816.054 76.6693 818.715 79.0349C821.524 81.4004 823.667 84.2834 825.146 87.6838C826.772 91.0842 827.585 95.2239 827.585 100.103C827.585 106.017 826.329 111.117 823.815 115.405C821.302 119.544 818.049 122.945 814.058 125.606C810.066 128.267 805.483 130.189 800.308 131.372C795.281 132.555 790.181 133.146 785.006 133.146C776.283 133.146 768.595 131.815 761.942 129.154C755.437 126.493 749.597 121.614 744.423 114.518L759.503 102.099C762.755 105.351 766.378 108.234 770.369 110.748C774.361 113.261 779.24 114.518 785.006 114.518C787.519 114.518 790.033 114.296 792.546 113.852C795.207 113.261 797.499 112.448 799.421 111.413C801.491 110.23 803.117 108.826 804.3 107.199C805.63 105.425 806.296 103.429 806.296 101.212C806.296 98.2547 805.335 95.8152 803.413 93.8933C801.639 91.9713 799.421 90.4928 796.76 89.4579C794.246 88.2752 791.511 87.3881 788.554 86.7967C785.745 86.0575 783.232 85.4661 781.014 85.0226C776.727 83.9877 772.661 82.8049 768.817 81.4743C764.973 80.1437 761.573 78.3696 758.616 76.1519C755.659 73.9342 753.293 71.1252 751.519 67.7247C749.745 64.3243 748.858 60.1107 748.858 55.084C748.858 49.6137 749.967 44.8827 752.185 40.8909C754.55 36.7512 757.581 33.3508 761.277 30.6896C765.121 28.0284 769.408 26.0325 774.139 24.7019C779.018 23.3713 783.897 22.706 788.776 22.706C795.873 22.706 802.674 24.0366 809.179 26.6978C815.684 29.359 820.858 33.7943 824.702 40.0038L809.179 51.7575Z" fill="white"/>
<path d="M108.651 0L172.427 0.0227558L66.929 105.521L63.7555 108.924L0 108.924L105.498 3.42589L108.651 0Z" fill="url(#paint0_linear_8246_402)"/>
<path d="M38.4855 120.823L7.57858 151.73L71.3341 151.73L74.5076 148.327L180.006 42.8284L146.4 42.8164L68.4348 120.823H38.4855Z" fill="url(#paint1_linear_8246_402)"/>
<defs>
<linearGradient id="paint0_linear_8246_402" x1="413.793" y1="0" x2="413.793" y2="193.023" gradientUnits="userSpaceOnUse">
<stop stop-color="#60AEFF"/>
<stop offset="1" stop-color="#005CBB"/>
</linearGradient>
<linearGradient id="paint1_linear_8246_402" x1="164.113" y1="26.9359" x2="23.4488" y2="167.6" gradientUnits="userSpaceOnUse">
<stop stop-color="#8965FD"/>
<stop offset="1" stop-color="#4525AE"/>
</linearGradient>
</defs>
</svg>
